<?xml version="1.0" encoding="utf-8"?>
<!-- Generator: Adobe Illustrator 19.2.1, SVG Export Plug-In . SVG Version: 6.00 Build 0)  -->
<svg version="1.1" id="layer" xmlns="http://www.w3.org/2000/svg" xmlns:xlink="http://www.w3.org/1999/xlink" x="0px" y="0px"
	 viewBox="0 0 652 652" style="enable-background:new 0 0 652 652;" xml:space="preserve">
<style type="text/css">
	.st0{fill:#40196D;}
</style>
<path class="st0" d="M377.8,295.5v91h-26.4v-13.3c-2.9,4.8-6.6,8.4-11.3,11c-4.7,2.5-9.9,3.8-15.8,3.8c-11.4,0-19.9-3.2-25.5-9.5
	c-5.6-6.3-8.4-15.9-8.4-28.7v-54.2h27.1v54.7c0,11,4.7,16.5,14.2,16.5c5.6,0,10.2-1.9,13.6-5.7s5.2-8.9,5.2-15.1v-50.4H377.8z
	 M481.2,254.1v132.5h-26.8V373c-2.8,4.7-6.6,8.3-11.7,11c-5,2.6-10.7,4-17.1,4c-7.8,0-14.7-2-20.8-6c-6.1-4-10.8-9.6-14.2-16.9
	c-3.4-7.2-5.1-15.5-5.1-24.8c0-9.3,1.7-17.5,5.1-24.7c3.4-7.1,8.1-12.6,14.2-16.5c6-3.9,13-5.8,20.9-5.8c6.1,0,11.7,1.3,16.7,3.8
	c5,2.6,8.9,6.1,11.7,10.7v-53.7H481.2z M449.1,360.4c3.6-4.6,5.4-11.2,5.4-19.8c0-8.5-1.8-15-5.4-19.6c-3.7-4.6-8.7-6.9-15.3-6.9
	c-6.7,0-11.9,2.3-15.6,6.8c-3.7,4.5-5.6,11-5.6,19.4c0,8.6,1.9,15.3,5.6,20c3.7,4.7,8.9,7.1,15.6,7.1
	C440.4,367.3,445.5,365,449.1,360.4z M584.7,295.5v91H558V373c-2.8,4.7-6.6,8.3-11.7,11c-5,2.6-10.7,4-17.1,4
	c-7.9,0-14.8-1.9-20.9-5.7c-6-3.8-10.8-9.3-14.2-16.4c-3.4-7.1-5.1-15.3-5.1-24.7c0-9.3,1.7-17.7,5.1-25c3.4-7.3,8.1-12.9,14.2-16.9
	c6.1-4,13-6,20.8-6c6.3,0,12,1.4,17.1,4.1c5,2.8,8.9,6.5,11.7,11.1v-13H584.7z M552.6,360.5c3.6-4.5,5.4-11.1,5.4-19.8
	c0-8.6-1.8-15.2-5.4-19.8c-3.6-4.6-8.7-6.9-15.4-6.9c-6.7,0-11.9,2.4-15.6,7.2c-3.7,4.8-5.6,11.4-5.6,19.9c0,8.5,1.8,15,5.4,19.5
	c3.7,4.5,8.9,6.7,15.7,6.7C543.8,367.3,549,365,552.6,360.5z M284.9,387.8h-33.6l-36.2-41.2v41.2h-27.4V254.1h27.4v81.2l34.5-39.4
	h32.9L243.5,340L284.9,387.8z M112.5,387.8l-52.6-60.6l28.7,60.6H68.7l-29.3-61.8l12.2,61.8H39.3l-12.2-61.9v61.9h-4.8V254.1h4.8
	v66.7l12.4-66.7h12.2l-12.4,67l29.9-67h19.7l-29.7,66.8l54-66.8h30.9l-56,69.1l56.2,64.7H112.5z M607.4,386.4
	c8.2,0,14.8-6.6,14.8-14.8s-6.6-14.8-14.8-14.8c-8.2,0-14.8,6.6-14.8,14.8S599.3,386.4,607.4,386.4z"/>
</svg>
